<svg version="1.1" id="Layer_1" xmlns="http://www.w3.org/2000/svg" xmlns:xlink="http://www.w3.org/1999/xlink" x="0px" y="0px"
	 width="100%" viewBox="0 0 225 225" enable-background="new 0 0 225 225" xml:space="preserve">
<path fill="#FDFDFD" opacity="1.000000" stroke="none" 
	d="
M148.000000,226.000000 
	C98.666672,226.000000 49.833340,226.000000 1.000006,226.000000 
	C1.000004,151.000000 1.000004,76.000015 1.000002,1.000017 
	C75.999992,1.000011 150.999985,1.000011 225.999969,1.000005 
	C225.999985,75.999985 225.999985,150.999969 226.000000,225.999969 
	C200.166672,226.000000 174.333328,226.000000 148.000000,226.000000 
M152.567322,204.182877 
	C161.258514,198.761414 170.778656,194.307037 178.467743,187.716431 
	C194.297272,174.148331 204.651276,156.835831 209.445038,136.275406 
	C214.470825,114.719849 213.010529,93.749496 203.794632,73.687889 
	C190.332840,44.383610 167.939713,25.481390 136.412140,17.636299 
	C117.441353,12.915744 98.997253,13.883327 80.536667,20.605684 
	C58.456200,28.646204 41.327419,42.418659 29.114130,62.349846 
	C21.604033,74.605774 16.326113,87.945168 15.119213,102.207970 
	C13.733427,118.584770 15.043174,134.835297 21.879930,150.346237 
	C28.767555,165.972549 38.078213,179.574661 51.473507,190.265549 
	C64.093102,200.337402 78.219429,207.831039 94.105576,210.263367 
	C105.410576,211.994263 117.203728,211.886490 128.641144,210.937531 
	C136.515839,210.284180 144.154541,206.786407 152.567322,204.182877 
z"/>
<path fill="#1F1F1D" opacity="1.000000" stroke="none" 
	d="
M152.233032,204.371399 
	C144.154541,206.786407 136.515839,210.284180 128.641144,210.937531 
	C117.203728,211.886490 105.410576,211.994263 94.105576,210.263367 
	C78.219429,207.831039 64.093102,200.337402 51.473507,190.265549 
	C38.078213,179.574661 28.767555,165.972549 21.879930,150.346237 
	C15.043174,134.835297 13.733427,118.584770 15.119213,102.207970 
	C16.326113,87.945168 21.604033,74.605774 29.114130,62.349846 
	C41.327419,42.418659 58.456200,28.646204 80.536667,20.605684 
	C98.997253,13.883327 117.441353,12.915744 136.412140,17.636299 
	C167.939713,25.481390 190.332840,44.383610 203.794632,73.687889 
	C213.010529,93.749496 214.470825,114.719849 209.445038,136.275406 
	C204.651276,156.835831 194.297272,174.148331 178.467743,187.716431 
	C170.778656,194.307037 161.258514,198.761414 152.233032,204.371399 
M158.768768,144.098816 
	C158.849335,123.398384 158.929916,102.697960 159.484421,81.695847 
	C159.665985,81.168640 159.847534,80.641426 160.109589,79.404617 
	C163.022110,76.638824 165.934647,73.873024 168.847168,71.107224 
	C164.097794,69.927635 160.289352,69.873589 156.483017,69.939964 
	C150.367798,70.046616 142.777313,68.085083 138.554153,70.988571 
	C134.317245,73.901505 133.395248,81.681610 131.097244,87.359673 
	C126.289223,99.239693 121.531731,111.140152 116.448425,123.791458 
	C108.023834,105.320557 99.973572,87.670364 92.064064,70.328781 
	C81.143997,70.328781 70.630562,70.328781 59.006348,70.328781 
	C63.198864,75.566841 66.760773,80.017029 70.263565,85.472298 
	C70.228165,102.071983 70.172745,118.671692 70.197594,135.271286 
	C70.199463,136.520309 70.773758,137.768463 70.971207,139.697418 
	C66.698875,145.124741 62.426548,150.552063 57.714165,156.538391 
	C69.756905,156.538391 80.392799,156.538391 92.182869,156.538391 
	C87.458290,150.490295 83.346771,145.226990 79.488243,139.695160 
	C79.285599,139.457550 79.082954,139.219940 78.326164,138.209824 
	C78.317490,134.515366 78.308815,130.820908 79.083336,126.760826 
	C78.821999,124.805878 78.560661,122.850929 78.116096,120.238487 
	C78.176888,119.564201 78.237671,118.889915 79.092178,117.774231 
	C79.493309,113.517960 79.894440,109.261688 80.391571,103.986801 
	C78.999672,105.306839 78.649811,105.638641 78.113327,105.094963 
	C78.113327,102.232170 78.113327,99.369385 78.113327,96.506592 
	C79.623596,97.838142 80.389503,99.247070 81.057793,100.700874 
	C89.110268,118.218224 97.114944,135.757751 105.251717,153.235794 
	C105.922134,154.675888 107.463821,155.710373 108.600685,156.933319 
	C109.667000,155.644287 111.146370,154.520096 111.736572,153.041077 
	C118.631653,135.762390 125.385033,118.427177 132.203064,101.117630 
	C132.820801,99.549339 133.627121,98.055328 134.951416,95.239037 
	C134.951416,112.115440 135.058716,127.433380 134.819290,142.745911 
	C134.788422,144.720306 133.262512,146.915527 131.897156,148.569214 
	C129.696243,151.234879 127.052589,153.534988 123.888763,156.696106 
	C139.605484,156.696106 153.777939,156.696106 169.442734,156.696106 
	C165.694992,152.807709 162.857803,149.864044 159.880966,146.367828 
	C159.595978,145.913879 159.310989,145.459946 158.768768,144.098816 
z"/>
<path fill="#FBFBFB" opacity="1.000000" stroke="none" 
	d="
M159.010498,81.997528 
	C158.929916,102.697960 158.849335,123.398384 158.861603,144.843140 
	C159.309830,146.031754 159.665237,146.476074 160.020630,146.920380 
	C162.857803,149.864044 165.694992,152.807709 169.442734,156.696106 
	C153.777939,156.696106 139.605484,156.696106 123.888763,156.696106 
	C127.052589,153.534988 129.696243,151.234879 131.897156,148.569214 
	C133.262512,146.915527 134.788422,144.720306 134.819290,142.745911 
	C135.058716,127.433380 134.951416,112.115440 134.951416,95.239037 
	C133.627121,98.055328 132.820801,99.549339 132.203064,101.117630 
	C125.385033,118.427177 118.631653,135.762390 111.736572,153.041077 
	C111.146370,154.520096 109.667000,155.644287 108.600685,156.933319 
	C107.463821,155.710373 105.922134,154.675888 105.251717,153.235794 
	C97.114944,135.757751 89.110268,118.218224 81.057793,100.700874 
	C80.389503,99.247070 79.623596,97.838142 78.113327,96.506592 
	C78.113327,99.369385 78.113327,102.232170 78.123840,105.982697 
	C78.189049,110.652168 78.243759,114.433899 78.298462,118.215630 
	C78.237671,118.889915 78.176888,119.564201 78.126297,121.006790 
	C78.191048,123.558868 78.245598,125.342659 78.300148,127.126442 
	C78.308815,130.820908 78.317490,134.515366 78.596344,138.876007 
	C78.989433,139.682678 79.112343,139.823181 79.235245,139.963684 
	C83.346771,145.226990 87.458290,150.490295 92.182869,156.538391 
	C80.392799,156.538391 69.756905,156.538391 57.714165,156.538391 
	C62.426548,150.552063 66.698875,145.124741 71.247818,139.006989 
	C71.601723,121.716026 71.712631,105.115456 71.693443,88.515038 
	C71.691887,87.165237 70.800560,85.816467 70.322685,84.467224 
	C66.760773,80.017029 63.198864,75.566841 59.006348,70.328781 
	C70.630562,70.328781 81.143997,70.328781 92.064064,70.328781 
	C99.973572,87.670364 108.023834,105.320557 116.448425,123.791458 
	C121.531731,111.140152 126.289223,99.239693 131.097244,87.359673 
	C133.395248,81.681610 134.317245,73.901505 138.554153,70.988571 
	C142.777313,68.085083 150.367798,70.046616 156.483017,69.939964 
	C160.289352,69.873589 164.097794,69.927635 168.847168,71.107224 
	C165.934647,73.873024 163.022110,76.638824 159.829071,79.925415 
	C159.369202,80.963318 159.189850,81.480423 159.010498,81.997528 
z"/>
<path fill="#424241" opacity="1.000000" stroke="none" 
	d="
M70.293121,84.969757 
	C70.800560,85.816467 71.691887,87.165237 71.693443,88.515038 
	C71.712631,105.115456 71.601723,121.716026 71.303192,138.666794 
	C70.773758,137.768463 70.199463,136.520309 70.197594,135.271286 
	C70.172745,118.671692 70.228165,102.071983 70.293121,84.969757 
z"/>
<path fill="#141512" opacity="1.000000" stroke="none" 
	d="
M78.695320,117.994934 
	C78.243759,114.433899 78.189049,110.652168 78.217148,106.420441 
	C78.649811,105.638641 78.999672,105.306839 80.391571,103.986801 
	C79.894440,109.261688 79.493309,113.517960 78.695320,117.994934 
z"/>
<path fill="#141512" opacity="1.000000" stroke="none" 
	d="
M78.691742,126.943634 
	C78.245598,125.342659 78.191048,123.558868 78.217911,121.335533 
	C78.560661,122.850929 78.821999,124.805878 78.691742,126.943634 
z"/>
<path fill="#0B0B07" opacity="1.000000" stroke="none" 
	d="
M159.247467,81.846687 
	C159.189850,81.480423 159.369202,80.963318 159.788834,80.280212 
	C159.847534,80.641426 159.665985,81.168640 159.247467,81.846687 
z"/>
<path fill="#0B0B07" opacity="1.000000" stroke="none" 
	d="
M159.950806,146.644104 
	C159.665237,146.476074 159.309830,146.031754 158.990219,145.296722 
	C159.310989,145.459946 159.595978,145.913879 159.950806,146.644104 
z"/>
<path fill="#141512" opacity="1.000000" stroke="none" 
	d="
M79.361740,139.829422 
	C79.112343,139.823181 78.989433,139.682678 78.873421,139.262253 
	C79.082954,139.219940 79.285599,139.457550 79.361740,139.829422 
z"/>
</svg>