<svg version="1.1" id="Layer_1" xmlns="http://www.w3.org/2000/svg" xmlns:xlink="http://www.w3.org/1999/xlink" x="0px" y="0px"
	 width="100%" viewBox="0 0 167 174" enable-background="new 0 0 167 174" xml:space="preserve">
<path fill="#FCFCFC" opacity="1.000000" stroke="none" 
	d="
M100.000000,175.000000 
	C66.666672,175.000000 33.833340,175.000000 1.000009,175.000000 
	C1.000006,117.000008 1.000006,59.000023 1.000003,1.000024 
	C56.666653,1.000016 112.333305,1.000016 167.999969,1.000008 
	C167.999969,58.999973 167.999969,116.999947 167.999985,174.999969 
	C145.500000,175.000000 123.000000,175.000000 100.000000,175.000000 
M53.329330,158.231781 
	C65.542732,163.780655 78.757469,164.786362 91.395599,162.651489 
	C123.119316,157.292618 146.999741,136.292297 154.065521,103.489342 
	C159.712021,77.275330 152.535095,54.415554 134.473969,35.398750 
	C119.839630,19.990072 101.295662,12.627044 79.620407,12.768623 
	C59.636490,12.899155 42.364334,19.711102 28.382469,33.272800 
	C9.682012,51.411297 1.549664,73.969505 6.053160,100.070747 
	C10.839244,127.809830 26.564917,147.138443 53.329330,158.231781 
z"/>
<path fill="#030303" opacity="1.000000" stroke="none" 
	d="
M52.953308,158.127686 
	C26.564917,147.138443 10.839244,127.809830 6.053160,100.070747 
	C1.549664,73.969505 9.682012,51.411297 28.382469,33.272800 
	C42.364334,19.711102 59.636490,12.899155 79.620407,12.768623 
	C101.295662,12.627044 119.839630,19.990072 134.473969,35.398750 
	C152.535095,54.415554 159.712021,77.275330 154.065521,103.489342 
	C146.999741,136.292297 123.119316,157.292618 91.395599,162.651489 
	C78.757469,164.786362 65.542732,163.780655 52.953308,158.127686 
M42.611778,44.011986 
	C39.885994,44.011986 37.160210,44.011986 33.624420,44.011986 
	C46.070034,60.659164 57.904289,76.488594 69.844353,92.459557 
	C57.830170,105.466484 45.924255,118.356194 33.882866,131.392563 
	C39.393612,133.079819 42.740276,131.103806 46.029526,127.390198 
	C54.939224,117.331001 64.233505,107.612442 73.614388,97.501045 
	C81.668678,108.247871 89.427696,118.641266 97.253250,128.984329 
	C98.104912,130.109970 99.319031,131.757980 100.401337,131.786514 
	C109.107887,132.016083 117.823151,131.915039 127.410789,131.915039 
	C114.265610,114.309929 101.756889,97.557220 89.187561,80.723343 
	C100.432617,68.531723 111.397652,56.643692 122.564644,44.536705 
	C116.751167,42.917732 113.429367,45.055244 110.165810,48.777431 
	C102.205231,57.856731 93.823334,66.566620 85.379684,75.674843 
	C80.863480,69.640236 76.701035,64.033119 72.488792,58.463669 
	C68.876099,53.686958 66.121445,47.121216 61.304768,44.715672 
	C56.482979,42.307571 49.575928,44.074841 42.611778,44.011986 
z"/>
<path fill="#F2F2F2" opacity="1.000000" stroke="none" 
	d="
M43.097340,44.011955 
	C49.575928,44.074841 56.482979,42.307571 61.304768,44.715672 
	C66.121445,47.121216 68.876099,53.686958 72.488792,58.463669 
	C76.701035,64.033119 80.863480,69.640236 85.379684,75.674843 
	C93.823334,66.566620 102.205231,57.856731 110.165810,48.777431 
	C113.429367,45.055244 116.751167,42.917732 122.564644,44.536705 
	C111.397652,56.643692 100.432617,68.531723 89.187561,80.723343 
	C101.756889,97.557220 114.265610,114.309929 127.410789,131.915039 
	C117.823151,131.915039 109.107887,132.016083 100.401337,131.786514 
	C99.319031,131.757980 98.104912,130.109970 97.253250,128.984329 
	C89.427696,118.641266 81.668678,108.247871 73.614388,97.501045 
	C64.233505,107.612442 54.939224,117.331001 46.029526,127.390198 
	C42.740276,131.103806 39.393612,133.079819 33.882866,131.392563 
	C45.924255,118.356194 57.830170,105.466484 69.844353,92.459557 
	C57.904289,76.488594 46.070034,60.659164 33.624420,44.011986 
	C37.160210,44.011986 39.885994,44.011986 43.097340,44.011955 
M82.000900,98.481117 
	C87.192848,105.401909 93.043427,111.936470 97.391914,119.351883 
	C101.759567,126.799965 107.653732,126.543205 114.898415,125.438225 
	C96.403244,100.699326 78.198845,76.323883 59.922657,52.002392 
	C59.236355,51.089073 57.886192,50.231144 56.788227,50.153267 
	C53.410789,49.913692 50.005554,50.065975 45.827190,50.065975 
	C58.135036,66.520096 69.868019,82.205696 82.000900,98.481117 
z"/>
<path fill="#090909" opacity="1.000000" stroke="none" 
	d="
M81.800949,98.186211 
	C69.868019,82.205696 58.135036,66.520096 45.827190,50.065975 
	C50.005554,50.065975 53.410789,49.913692 56.788227,50.153267 
	C57.886192,50.231144 59.236355,51.089073 59.922657,52.002392 
	C78.198845,76.323883 96.403244,100.699326 114.898415,125.438225 
	C107.653732,126.543205 101.759567,126.799965 97.391914,119.351883 
	C93.043427,111.936470 87.192848,105.401909 81.800949,98.186211 
z"/>
</svg>